<svg preserveAspectRatio="none" overflow="visible" style="display: block;" width="151.489" height="210.136" viewBox="0 0 151.489 210.136" fill="none" xmlns="http://www.w3.org/2000/svg">
<g id="Union">
<mask id="path-1-inside-1_0_1145" fill="white">
<path d="M151.489 82.6006H150.829L151.05 82.8213L45.7607 188.11V210.136H0.165039V170.487L0 170.322L0.165039 170.157V169.826H0.496094L105.894 64.4287V43.6133H0.165039V0H151.489V82.6006Z"/>
</mask>
<path d="M151.489 82.6006V84.6006H153.489V82.6006H151.489ZM150.829 82.6006V80.6006H146.001L149.415 84.0148L150.829 82.6006ZM151.05 82.8213L152.464 84.2355L153.878 82.8213L152.464 81.4071L151.05 82.8213ZM45.7607 188.11L44.3465 186.696L43.7607 187.282V188.11H45.7607ZM45.7607 210.136V212.136H47.7607V210.136H45.7607ZM0.165039 210.136H-1.83496V212.136H0.165039V210.136ZM0.165039 170.487H2.16504V169.659L1.57925 169.073L0.165039 170.487ZM0 170.322L-1.41421 168.908L-2.82843 170.322L-1.41421 171.736L0 170.322ZM0.165039 170.157L1.57925 171.571L2.16504 170.986V170.157H0.165039ZM0.165039 169.826V167.826H-1.83496V169.826H0.165039ZM0.496094 169.826V171.826H1.32452L1.91031 171.24L0.496094 169.826ZM105.894 64.4287L107.308 65.8429L107.894 65.2571V64.4287H105.894ZM105.894 43.6133H107.894V41.6133H105.894V43.6133ZM0.165039 43.6133H-1.83496V45.6133H0.165039V43.6133ZM0.165039 0V-2H-1.83496V0H0.165039ZM151.489 0H153.489V-2H151.489V0ZM151.489 82.6006V80.6006H150.829V82.6006V84.6006H151.489V82.6006ZM150.829 82.6006L149.415 84.0148L149.636 84.2355L151.05 82.8213L152.464 81.4071L152.243 81.1864L150.829 82.6006ZM151.05 82.8213L149.636 81.4071L44.3465 186.696L45.7607 188.11L47.175 189.525L152.464 84.2355L151.05 82.8213ZM45.7607 188.11H43.7607V210.136H45.7607H47.7607V188.11H45.7607ZM45.7607 210.136V208.136H0.165039V210.136V212.136H45.7607V210.136ZM0.165039 210.136H2.16504V170.487H0.165039H-1.83496V210.136H0.165039ZM0.165039 170.487L1.57925 169.073L1.41421 168.908L0 170.322L-1.41421 171.736L-1.24917 171.902L0.165039 170.487ZM0 170.322L1.41421 171.736L1.57925 171.571L0.165039 170.157L-1.24917 168.743L-1.41421 168.908L0 170.322ZM0.165039 170.157H2.16504V169.826H0.165039H-1.83496V170.157H0.165039ZM0.165039 169.826V171.826H0.496094V169.826V167.826H0.165039V169.826ZM0.496094 169.826L1.91031 171.24L107.308 65.8429L105.894 64.4287L104.479 63.0145L-0.91812 168.412L0.496094 169.826ZM105.894 64.4287H107.894V43.6133H105.894H103.894V64.4287H105.894ZM105.894 43.6133V41.6133H0.165039V43.6133V45.6133H105.894V43.6133ZM0.165039 43.6133H2.16504V0H0.165039H-1.83496V43.6133H0.165039ZM0.165039 0V2H151.489V0V-2H0.165039V0ZM151.489 0H149.489V82.6006H151.489H153.489V0H151.489Z" fill="#23F3D5" mask="url(#path-1-inside-1_0_1145)"/>
</g>
</svg>
