<svg width="25" height="25" viewBox="0 0 25 25" fill="none" xmlns="http://www.w3.org/2000/svg">
<circle cx="8" cy="18" r="5" fill="#23F3D5"/>
<path d="M13.7236 13.2979C14.4416 13.5891 14.7873 14.407 14.4961 15.125L11.1641 23.3408C10.8728 24.0588 10.0539 24.4055 9.33594 24.1143L5.625 22.6084H9.41016C10.1849 22.6084 10.8135 21.9799 10.8135 21.2051V12.3389C10.8135 12.2602 10.8044 12.1835 10.792 12.1084L13.7236 13.2979Z" fill="#3E4140"/>
<path d="M18.0244 8C19.1288 8.00026 20.0244 8.89559 20.0244 10V12.0205L22.0244 10.8662C22.691 10.4817 23.5244 10.9628 23.5244 11.7324V16.9277C23.5244 17.6974 22.691 18.1785 22.0244 17.7939L20.0244 16.6387V18C20.0244 19.1044 19.1288 19.9997 18.0244 20H10.8135V12.3389C10.8134 11.5642 10.1849 10.9365 9.41016 10.9365H4.02344V10C4.02344 8.89543 4.91984 8 6.02441 8H18.0244Z" fill="#3E4140"/>
<path d="M9.41017 10.9361H3.40286C2.62808 10.9361 2 11.5642 2 12.339V21.2054C2 21.9802 2.62808 22.6083 3.40286 22.6083H9.41017C10.1849 22.6083 10.813 21.9802 10.813 21.2054V12.339C10.813 11.5642 10.1849 10.9361 9.41017 10.9361Z" stroke="#3E4140" stroke-width="2" stroke-miterlimit="10"/>
<path d="M6.40842 18.0703C6.4235 18.1262 6.55722 18.5636 7.11943 18.9036H5.69863C6.26002 18.5636 6.39333 18.127 6.40882 18.0703H6.40842ZM6.53725 14.2527C6.60859 14.3081 8.21978 15.6026 8.61524 16.6197L8.62299 16.6397C8.64663 16.6833 8.66294 16.731 8.67843 16.7783L8.71349 16.8692H8.70208L8.69433 16.8652C8.71023 16.9365 8.71798 17.0119 8.71798 17.0874C8.71798 17.7205 8.1676 18.2391 7.49083 18.2391C7.02403 18.2391 6.61226 17.9896 6.40638 17.6255C6.20049 17.9896 5.7928 18.2391 5.32192 18.2391C4.64516 18.2391 4.09518 17.7246 4.09518 17.0874C4.09518 17.0123 4.10293 16.9406 4.11883 16.8652H4.11108L4.13881 16.7942C4.15471 16.7429 4.17428 16.6874 4.20608 16.632V16.6197C4.60194 15.6026 6.2168 14.3081 6.28407 14.2527L6.41045 14.15L6.53684 14.2527H6.53725ZM6.40842 18.0703C6.40719 18.0662 6.40638 18.0642 6.40638 18.0642H6.41045C6.41045 18.0642 6.40923 18.0662 6.40801 18.0703H6.40842Z" fill="#3E4140"/>
<circle cx="16.0239" cy="4" r="3" fill="#3E4140"/>
<circle cx="10.0239" cy="5" r="2" fill="#3E4140"/>
</svg>
